<?xml version="1.0" encoding="utf-8"?>
<!-- Generator: Adobe Illustrator 19.2.1, SVG Export Plug-In . SVG Version: 6.00 Build 0)  -->
<svg version="1.1" id="Layer_1" xmlns="http://www.w3.org/2000/svg" xmlns:xlink="http://www.w3.org/1999/xlink" x="0px" y="0px"
	 viewBox="0 0 60 60" style="enable-background:new 0 0 60 60;" xml:space="preserve">
<style type="text/css">
	.st0{fill:#FFFFFF;}
</style>
<title>Smile</title>
<g>
	<path class="st0" d="M50.5,4c3,0,5.5,2.5,5.5,5.5v41c0,3-2.5,5.5-5.5,5.5h-41c-3,0-5.5-2.5-5.5-5.5v-41C4,6.4,6.5,4,9.5,4H50.5
		 M50.5,0h-41C4.3,0,0,4.2,0,9.5v41C0,55.7,4.3,60,9.5,60h41c5.3,0,9.5-4.3,9.5-9.5v-41C60,4.2,55.7,0,50.5,0L50.5,0z"/>
</g>
<path class="st0" d="M30.7,22.3L35.5,36c0.2,0.5-0.2,1-0.7,1h-9.6c-0.5,0-0.9-0.5-0.7-1l4.8-13.8C29.5,21.6,30.5,21.6,30.7,22.3z"/>
</svg>
