<?xml version="1.0" encoding="utf-8"?>
<!-- Generator: Adobe Illustrator 19.2.1, SVG Export Plug-In . SVG Version: 6.00 Build 0)  -->
<svg version="1.1" id="Layer_1" xmlns="http://www.w3.org/2000/svg" xmlns:xlink="http://www.w3.org/1999/xlink" x="0px" y="0px"
	 viewBox="0 0 60 60" style="enable-background:new 0 0 60 60;" xml:space="preserve">
<style type="text/css">
	.st0{fill:#FF0000;}
	.st1{fill:none;stroke:#FF0000;stroke-width:2;stroke-miterlimit:10;}
</style>
<title>Smile</title>
<g>
	<path class="st0" d="M55.1,2C56.7,2,58,3.3,58,4.9v50.1c0,1.6-1.3,2.9-2.9,2.9H4.9C3.3,58,2,56.7,2,55.1V4.9C2,3.3,3.3,2,4.9,2
		H55.1 M55.1,0H4.9C2.2,0,0,2.2,0,4.9v50.1C0,57.8,2.2,60,4.9,60h50.1c2.7,0,4.9-2.2,4.9-4.9V4.9C60,2.2,57.8,0,55.1,0L55.1,0z"/>
</g>
<polygon class="st1" points="30,24.3 37.7,37.6 22.3,37.6 "/>
</svg>
