<?xml version="1.0" encoding="utf-8"?>
<!-- Generator: Adobe Illustrator 19.2.1, SVG Export Plug-In . SVG Version: 6.00 Build 0)  -->
<svg version="1.1" id="Layer_1" xmlns="http://www.w3.org/2000/svg" xmlns:xlink="http://www.w3.org/1999/xlink" x="0px" y="0px"
	 viewBox="0 0 72 72" style="enable-background:new 0 0 72 72;" xml:space="preserve">
<style type="text/css">
	.st0{fill:#FFFFFF;}
</style>
<g>
	<path class="st0" d="M19.6,30.1h7.8v2.9h-4.8v2.2h3.7v2.8h-3.7v5.1h-3V30.1z"/>
	<path class="st0" d="M29.2,30.1h3v10.2h5.1v2.9h-8V30.1z"/>
	<path class="st0" d="M38.8,30.1h3v13.1h-3V30.1z"/>
	<path class="st0" d="M44.2,30.1h4.3c2.6,0,4.5,2,4.5,4.4S51.1,39,48.5,39h-1.4v4.2h-3V30.1z M48.5,36.3c1,0,1.7-0.8,1.7-1.7
		c0-0.9-0.7-1.7-1.7-1.7h-1.3v3.4H48.5z"/>
</g>
</svg>
