<?xml version="1.0" encoding="utf-8"?>
<!-- Generator: Adobe Illustrator 19.2.1, SVG Export Plug-In . SVG Version: 6.00 Build 0)  -->
<svg version="1.1" id="Layer_1" xmlns="http://www.w3.org/2000/svg" xmlns:xlink="http://www.w3.org/1999/xlink" x="0px" y="0px"
	 viewBox="0 0 55.6 61.7" style="enable-background:new 0 0 55.6 61.7;" xml:space="preserve">
<style type="text/css">
	.st0{fill:#FF0000;}
</style>
<title>Frown</title>
<path class="st0" d="M50.2,9.5h-5.7C42.1,3.8,36.1,0,29.4,0h-16c-3.3,0-6,2.7-6,6c0,1.3,0.4,2.6,1.2,3.6c-3.1,0.3-5.4,2.9-5.4,6
	c0,1.4,0.5,2.7,1.3,3.8c-3.2,0.8-5.1,4.1-4.3,7.3c0.6,2.1,2.2,3.7,4.3,4.3c-2.1,2.6-1.6,6.4,1,8.5c1.1,0.8,2.4,1.3,3.7,1.3h9.5
	c-7,9.4-5.9,15.2-5,17.4c0.6,1.8,2.1,3.1,4,3.5c1.4,0.1,2.6-0.6,3.3-1.8l0.3-0.4c3.5-5.8,5.7-9.4,10-12.8L41.8,38h8.5
	c2.9,0,5.3-2.4,5.3-5.3V14.8C55.6,11.8,53.2,9.5,50.2,9.5z M53.1,32.7c0,1.6-1.3,2.9-2.9,2.9c0,0,0,0,0,0h-9.3l-11.2,9
	c-4.7,3.7-7,7.6-10.6,13.5l-0.3,0.4c-0.2,0.4-0.6,0.6-1,0.6c-0.6,0-1.4-0.6-1.9-1.9c-0.6-1.5-1.9-7,5.9-16.5h0.5c3.3,0,6-2.7,6-6
	c0-1.5-0.6-2.9-1.5-4c3.1-1.3,4.5-4.9,3.2-8c-0.6-1.4-1.8-2.6-3.2-3.2c0.9-1.1,1.5-2.5,1.5-4c0-2.6-1.6-4.8-4-5.7
	c0.9-1.1,1.4-2.5,1.4-3.9c0-1.3-0.4-2.5-1.2-3.5h4.8c6,0,11.3,3.5,13.1,8.7l0.4,0.8h7.5c1.6,0,2.9,1.3,2.9,2.9c0,0,0,0,0,0v17.9
	C53.2,32.7,53.1,32.7,53.1,32.7z M5.6,34.6c0-1.9,1.5-3.5,3.5-3.5c0,0,0,0,0,0h13.2c1.9,0,3.5,1.5,3.5,3.5c0,0,0,0,0,0
	c0,1.9-1.6,3.5-3.5,3.5H9.2C7.2,38.1,5.6,36.6,5.6,34.6z M5.6,15.5c0-1.9,1.5-3.5,3.5-3.5c0,0,0,0,0,0h13.2c1.9,0,3.5,1.6,3.5,3.5
	S24.2,19,22.3,19H9.2C7.2,19,5.6,17.5,5.6,15.5z M13.4,2.4h6.4c1.9,0,3.5,1.6,3.5,3.5c0,1.9-1.6,3.5-3.5,3.5h-6.4
	c-1.9,0-3.5-1.5-3.5-3.5c0,0,0,0,0,0c0-1.9,1.4-3.5,3.3-3.5C13.3,2.4,13.3,2.4,13.4,2.4z M6,21.5h18.5c1.9,0,3.5,1.5,3.5,3.5
	c0,0,0,0,0,0c0,1.9-1.6,3.5-3.5,3.5H6.1c-1.9,0-3.5-1.5-3.5-3.5C2.5,23.1,4.1,21.5,6,21.5L6,21.5z"/>
</svg>
