<svg id="Layer_1" data-name="Layer 1" xmlns="http://www.w3.org/2000/svg" viewBox="0 0 55.6 61.71"><title>Frown</title><path d="M50.2,9.5H44.5C42.1,3.8,36.1,0,29.4,0h-16a6,6,0,0,0-6,6A5.78,5.78,0,0,0,8.6,9.6a6.06,6.06,0,0,0-5.4,6,6.46,6.46,0,0,0,1.3,3.8A6,6,0,0,0,4.5,31a6.05,6.05,0,0,0,4.7,9.8h9.5c-7,9.4-5.9,15.2-5,17.4a5.33,5.33,0,0,0,4,3.5A3.56,3.56,0,0,0,21,59.9l0.3-.4c3.5-5.8,5.7-9.4,10-12.8L41.8,38h8.5a5.34,5.34,0,0,0,5.3-5.3V14.8A5.36,5.36,0,0,0,50.2,9.5Zm2.9,23.2a2.9,2.9,0,0,1-2.9,2.9H40.9l-11.2,9c-4.7,3.7-7,7.6-10.6,13.5l-0.3.4a1.22,1.22,0,0,1-1,.6c-0.6,0-1.4-.6-1.9-1.9-0.6-1.5-1.9-7,5.9-16.5h0.5a6,6,0,0,0,6-6,6.37,6.37,0,0,0-1.5-4,6.09,6.09,0,0,0,0-11.2,6.37,6.37,0,0,0,1.5-4,6.09,6.09,0,0,0-4-5.7,5.82,5.82,0,0,0,1.4-3.9,5.5,5.5,0,0,0-1.2-3.5h4.8c6,0,11.3,3.5,13.1,8.7l0.4,0.8h7.5a2.9,2.9,0,0,1,2.9,2.9V32.7H53.1ZM5.6,34.6a3.48,3.48,0,0,1,3.5-3.5H22.3a3.48,3.48,0,0,1,3.5,3.5,3.54,3.54,0,0,1-3.5,3.5H9.2A3.56,3.56,0,0,1,5.6,34.6Zm0-19.1A3.48,3.48,0,0,1,9.1,12H22.3a3.5,3.5,0,0,1,0,7H9.2A3.56,3.56,0,0,1,5.6,15.5ZM13.4,2.4h6.4a3.5,3.5,0,0,1,0,7H13.4A3.48,3.48,0,0,1,9.9,5.9,3.42,3.42,0,0,1,13.4,2.4ZM6,21.5H24.5A3.48,3.48,0,0,1,28,25a3.54,3.54,0,0,1-3.5,3.5H6.1A3.5,3.5,0,0,1,6,21.5Z" transform="translate(0 0)" style="fill:#fff"/></svg>