<?xml version="1.0" encoding="utf-8"?>
<!-- Generator: Adobe Illustrator 21.0.0, SVG Export Plug-In . SVG Version: 6.00 Build 0)  -->
<svg version="1.1" id="Layer_1" xmlns="http://www.w3.org/2000/svg" xmlns:xlink="http://www.w3.org/1999/xlink" x="0px" y="0px"
	 viewBox="0 0 1529 316" style="enable-background:new 0 0 1529 316;" xml:space="preserve">
<style type="text/css">
	.st0{fill:#FFFFFF;}
	.st1{fill:#231F20;}
</style>
<g>
	<g>
		<g>
			<path d="M1466.5,298.1H59.7c-15.4,0-28.1-12.6-28.1-28.1V82C31.6,66.6,44.2,54,59.7,54h1406.8c15.4,0,28.1,12.6,28.1,28.1V270
				C1494.6,285.4,1482,298.1,1466.5,298.1z"/>
		</g>
		<g>
			<path class="st0" d="M1447.9,279.5H41.1c-15.4,0-28.1-12.6-28.1-28.1V63.4C13,48,25.6,35.4,41.1,35.4h1406.8
				c15.4,0,28.1,12.6,28.1,28.1v187.9C1476,266.8,1463.4,279.5,1447.9,279.5z"/>
		</g>
	</g>
	<g>
		<path class="st1" d="M118.2,129.5v-14.8h71.4v14.8h-27.9v84.7h-15.6v-84.7H118.2z"/>
		<path class="st1" d="M194.8,113.5h14.8v41.2c6.1-9,14.2-13.4,24.2-13.4c13.5,0,21.2,7.4,21.2,22.3v50.5h-14.8v-46.6
			c0-10.2-3.8-13.1-11.2-13.1c-4.5,0-9,2.7-13.1,8.1c-4.1,5.4-6.3,12.5-6.3,21.3v30.3h-14.8V113.5z"/>
		<path class="st1" d="M328.2,182.5h-50.8c0,11.2,6.5,19.8,17.8,19.8c8,0,15.2-4.5,18.8-12.1l12.7,5c-7.3,14.1-15.6,20.2-31.4,20.2
			c-23.6,0-33.4-19.9-33.4-37c0-17.1,9.8-37,33.4-37c22.9,0,33,18.6,33,34.7V182.5z M277.7,170.1h34.8c-1.3-9-7.3-15.6-17.3-15.6
			C285.7,154.5,279.4,160.9,277.7,170.1z"/>
		<path class="st1" d="M406.8,113.5c12.9,0,23.7,4.4,32.4,13.4c8.8,8.8,13.2,21.3,13.2,37.5s-4.4,28.7-13.2,37.7
			c-8.7,8.8-19.5,13.2-32.4,13.2s-23.7-4.4-32.6-13.2c-8.7-9-13.1-21.5-13.1-37.7s4.4-28.7,13.1-37.5
			C383,117.9,393.8,113.5,406.8,113.5z M406.8,128.3c-8.5,0-15.6,3.1-21.3,9.2c-5.5,6.1-8.4,15.1-8.4,26.9c0,11.8,2.8,20.8,8.4,26.9
			c5.7,6.1,12.8,9.2,21.3,9.2c8.5,0,15.6-3.1,21.2-9.2c5.7-6.1,8.5-15.1,8.5-26.9c0-11.8-2.8-20.8-8.5-26.9
			C422.4,131.4,415.3,128.3,406.8,128.3z"/>
		<path class="st1" d="M461.5,142.5h14.8v12.2c5.1-8.5,13.6-13.4,23.2-13.4c12.7,0,21,7.8,21,21.5v51.3h-14.8v-46.6
			c0-8.7-3.7-13.1-11.1-13.1c-5,0-9.2,2.8-12.9,8.4c-3.6,5.5-5.4,12.9-5.4,22.3v29h-14.8V142.5z"/>
		<path class="st1" d="M529.6,113.5h14.8v100.7h-14.8V113.5z"/>
		<path class="st1" d="M554.6,115.1c4-4.1,10.5-4.1,14.5,0c4,4,4,10.5,0,14.5c-3.8,3.8-10.7,3.8-14.6,0
			C550.6,125.6,550.6,119.1,554.6,115.1z M554.5,142.5h14.8v71.7h-14.8V142.5z"/>
		<path class="st1" d="M579.9,142.5h14.8v12.2c5.1-8.5,13.6-13.4,23.2-13.4c12.7,0,21,7.8,21,21.5v51.3h-14.8v-46.6
			c0-8.7-3.7-13.1-11.1-13.1c-5,0-9.2,2.8-12.9,8.4c-3.6,5.5-5.4,12.9-5.4,22.3v29h-14.8V142.5z"/>
		<path class="st1" d="M711.9,182.5h-50.8c0,11.2,6.5,19.8,17.8,19.8c8,0,15.2-4.5,18.8-12.1l12.7,5c-7.3,14.1-15.6,20.2-31.4,20.2
			c-23.6,0-33.4-19.9-33.4-37c0-17.1,9.8-37,33.4-37c22.9,0,33,18.6,33,34.7V182.5z M661.4,170.1h34.8c-1.3-9-7.3-15.6-17.3-15.6
			C669.4,154.5,663.1,160.9,661.4,170.1z"/>
		<path class="st1" d="M751,114.7h35.3c17.1,0,27.9,9.4,27.9,26c0,7.8-4.3,16.2-10.1,19.2c9.5,4,15.2,13.5,15.2,25
			c0,18.6-11.5,29.3-31.3,29.3h-37V114.7z M766.6,129.5v24.5h18.2c9.1,0,13.6-4.1,13.6-12.2c0-8.1-4.5-12.2-13.6-12.2H766.6z
			 M766.6,168.7v30.7h19.2c11.7,0,17.5-5.1,17.5-15.4c0-10.2-5.8-15.4-17.5-15.4H766.6z"/>
		<path class="st1" d="M842.5,214.2h-14.8v-71.7h14.8v11.9c4.7-8.4,13.2-13.1,21.2-13.1c3.3,0,6.3,0.6,9.1,1.7l-2.6,13.5
			c-2.3-1.4-5.1-2.1-8.4-2.1c-5.3,0-9.8,2.8-13.6,8.7c-3.8,5.7-5.7,13.8-5.7,24.5V214.2z"/>
		<path class="st1" d="M903.6,170.1H916V167c0-8.5-5.8-12.5-13.9-12.5c-6.5,0-10.9,3.1-13.4,9.5l-13.5-2.8c3-12.1,13.4-19.8,27-19.8
			c19.1,0,28.6,9.4,28.6,28.3v44.5h-12.5l-1.4-9.4c-5,7-12.4,10.5-22.2,10.5c-12.7,0-22-7.5-22-21.8
			C872.6,178.9,885,170.1,903.6,170.1z M897.2,202.2c5,0,9.4-1.6,13.1-4.7c3.8-3.3,5.7-7.7,5.7-13.5v-1.6h-12.9
			c-9.1,0-14.8,4.3-14.8,11.1C888.3,198.7,891.4,202.2,897.2,202.2z"/>
		<path class="st1" d="M941.7,142.5h14.8v12.2c5.1-8.5,13.6-13.4,23.2-13.4c12.7,0,21,7.8,21,21.5v51.3h-14.8v-46.6
			c0-8.7-3.7-13.1-11.1-13.1c-5,0-9.2,2.8-12.9,8.4c-3.6,5.5-5.4,12.9-5.4,22.3v29h-14.8V142.5z"/>
		<path class="st1" d="M1039.5,141.4c3.6,0,7.1,1,10.9,2.8c3.8,1.8,6.5,3.8,8.2,6.3v-37h14.8v100.7h-14.8v-8.2
			c-2.7,4.7-10.8,9.4-19.5,9.4c-20.9,0-32-13.6-32-37C1007.3,155.6,1018.5,141.4,1039.5,141.4z M1022.9,178.4
			c0,7.3,1.7,13.1,5.1,17.5c3.4,4.3,7.8,6.4,13.2,6.4c5.4,0,9.8-2.1,13.2-6.4c3.4-4.4,5.1-10.2,5.1-17.5c0-7.3-1.7-13.1-5.1-17.3
			c-3.4-4.4-7.8-6.5-13.2-6.5c-5.4,0-9.8,2.1-13.2,6.5C1024.6,165.3,1022.9,171.1,1022.9,178.4z"/>
		<path class="st1" d="M1118.7,114.7h29.3c12.8,0,23.6,4.3,32.4,12.9c9,8.7,13.4,20.9,13.4,36.8s-4.4,28.1-13.4,36.8
			c-8.8,8.7-19.6,12.9-32.4,12.9h-29.3V114.7z M1134.4,129.5v69.9h9.1c17.5,0,34.4-7.8,34.4-35s-16.9-35-34.4-35H1134.4z"/>
		<path class="st1" d="M1266.4,182.5h-50.8c0,11.2,6.5,19.8,17.8,19.8c8,0,15.2-4.5,18.8-12.1l12.7,5c-7.3,14.1-15.6,20.2-31.4,20.2
			c-23.6,0-33.4-19.9-33.4-37c0-17.1,9.8-37,33.4-37c22.9,0,33,18.6,33,34.7V182.5z M1216,170.1h34.8c-1.3-9-7.3-15.6-17.3-15.6
			C1223.9,154.5,1217.7,160.9,1216,170.1z"/>
		<path class="st1" d="M1336.8,195.6c-5.8,13.2-16.1,19.8-31,19.8c-10.8,0-19.2-3.6-25-10.5c-5.8-7.1-8.7-15.9-8.7-26.4
			s2.8-19.3,8.7-26.3c5.8-7.1,14.2-10.7,25-10.7c14.9,0,25.2,6.5,31,19.8l-13.2,5.7c-3.7-8.2-9.7-12.4-17.8-12.4
			c-12.1,0-18.1,9.5-18.1,23.9c0,14.4,6,23.9,18.1,23.9c8.1,0,14.1-4.1,17.8-12.4L1336.8,195.6z"/>
		<path class="st1" d="M1343.9,113.5h14.8v57.6l25.9-28.6h18.8l-30,33l31.8,38.7h-18.8l-27.7-34.3v34.3h-14.8V113.5z"/>
	</g>
</g>
</svg>
