<?xml version="1.0" encoding="utf-8"?>
<!-- Generator: Adobe Illustrator 19.2.1, SVG Export Plug-In . SVG Version: 6.00 Build 0)  -->
<svg version="1.1" id="Layer_1" xmlns="http://www.w3.org/2000/svg" xmlns:xlink="http://www.w3.org/1999/xlink" x="0px" y="0px"
	 viewBox="0 0 108.7 60" style="enable-background:new 0 0 108.7 60;" xml:space="preserve">
<style type="text/css">
	.st0{fill:#FFFFFF;}
</style>
<title>Smile</title>
<g>
	<path class="st0" d="M99.2,4c3,0,5.5,2.5,5.5,5.5v41c0,3-2.5,5.5-5.5,5.5H9.5c-3,0-5.5-2.5-5.5-5.5v-41C4,6.4,6.5,4,9.5,4H99.2
		 M99.2,0H9.5C4.3,0,0,4.2,0,9.5v41C0,55.7,4.3,60,9.5,60h89.7c5.3,0,9.5-4.3,9.5-9.5v-41C108.7,4.2,104.4,0,99.2,0L99.2,0z"/>
</g>
<g>
	<path class="st0" d="M50.8,40.5c0.1,0.7,0.2,1.2,0.5,1.6c0.5,0.7,1.5,1,2.8,1c0.8,0,1.5-0.2,2.1-0.5c0.6-0.3,0.9-0.8,0.9-1.5
		c0-0.5-0.2-0.9-0.7-1.2c-0.3-0.2-0.9-0.4-1.8-0.6l-1.7-0.4c-1.1-0.3-1.9-0.6-2.4-0.9c-0.9-0.6-1.4-1.3-1.4-2.3
		c0-1.2,0.4-2.1,1.3-2.8c0.9-0.7,2-1.1,3.4-1.1c1.9,0,3.2,0.5,4.1,1.6c0.5,0.7,0.8,1.4,0.8,2.2h-2c0-0.5-0.2-0.9-0.5-1.3
		c-0.5-0.5-1.3-0.8-2.5-0.8c-0.8,0-1.4,0.1-1.8,0.4c-0.4,0.3-0.6,0.7-0.6,1.2c0,0.5,0.3,1,0.8,1.3c0.3,0.2,0.8,0.4,1.4,0.5l1.4,0.3
		c1.5,0.4,2.5,0.7,3,1c0.8,0.5,1.2,1.4,1.2,2.5c0,1.1-0.4,2-1.3,2.8c-0.8,0.8-2.1,1.2-3.8,1.2c-1.9,0-3.2-0.4-3.9-1.2
		c-0.8-0.8-1.2-1.9-1.2-3.1H50.8z"/>
	<path class="st0" d="M61.9,27.4h2.1v6.3c0.5-0.6,0.9-1.1,1.3-1.3c0.7-0.4,1.5-0.7,2.5-0.7c1.8,0,3,0.6,3.6,1.9
		c0.3,0.7,0.5,1.6,0.5,2.8v7.9h-2.1v-7.8c0-0.9-0.1-1.6-0.3-2c-0.4-0.7-1.1-1-2.1-1c-0.9,0-1.6,0.3-2.3,0.9c-0.7,0.6-1,1.7-1,3.3
		v6.5h-2.1V27.4z"/>
	<path class="st0" d="M75.5,27.4h2.1v2.3h-2.1V27.4z M75.5,32.1h2.1v12.3h-2.1V32.1z"/>
	<path class="st0" d="M82.2,28.3c0.5-0.7,1.4-1.1,2.8-1.1c0.1,0,0.3,0,0.4,0c0.1,0,0.3,0,0.5,0v1.9c-0.2,0-0.4,0-0.5,0
		c-0.1,0-0.2,0-0.3,0c-0.6,0-1,0.2-1.1,0.5c-0.1,0.3-0.2,1.2-0.2,2.5h2.1v1.6h-2.1v10.6h-2V33.7H80v-1.6h1.7v-1.9
		C81.8,29.3,81.9,28.7,82.2,28.3z"/>
	<path class="st0" d="M89.6,28.6h2.1V32h2v1.7h-2v8c0,0.4,0.1,0.7,0.4,0.9c0.2,0.1,0.4,0.1,0.8,0.1c0.1,0,0.2,0,0.3,0
		c0.1,0,0.2,0,0.4,0v1.6c-0.2,0.1-0.5,0.1-0.7,0.1c-0.3,0-0.5,0-0.8,0c-1,0-1.6-0.2-2-0.7c-0.3-0.5-0.5-1.1-0.5-1.9v-8.2h-1.7V32
		h1.7V28.6z"/>
</g>
</svg>
