<?xml version="1.0" encoding="utf-8"?>
<!-- Generator: Adobe Illustrator 19.2.1, SVG Export Plug-In . SVG Version: 6.00 Build 0)  -->
<svg version="1.1" id="Layer_1" xmlns="http://www.w3.org/2000/svg" xmlns:xlink="http://www.w3.org/1999/xlink" x="0px" y="0px"
	 viewBox="0 0 55.6 61.7" style="enable-background:new 0 0 55.6 61.7;" xml:space="preserve">
<style type="text/css">
	.st0{fill:#FF0000;}
</style>
<title>Smile</title>
<path class="st0" d="M5.4,52.2h5.7c2.4,5.7,8.4,9.5,15.1,9.5h16c3.3,0,6-2.7,6-6l0,0c0-1.3-0.4-2.6-1.2-3.6c3.1-0.3,5.4-2.9,5.4-6
	c0-1.4-0.5-2.7-1.3-3.8c3.2-0.8,5.1-4.1,4.3-7.3c-0.6-2.1-2.2-3.7-4.3-4.3c2.1-2.6,1.6-6.4-1-8.5c-1.1-0.8-2.4-1.3-3.7-1.3h-9.5
	c7-9.4,5.9-15.2,5-17.4c-0.6-1.8-2.1-3.1-4-3.5c-1.4-0.1-2.6,0.6-3.3,1.8l-0.3,0.4c-3.5,5.8-5.7,9.4-10,12.8l-10.5,8.7H5.3
	C2.4,23.7,0,26.1,0,29v17.9C0,49.9,2.4,52.2,5.4,52.2z M2.5,29c0-1.6,1.3-2.9,2.9-2.9h9.3l11.2-9c4.7-3.7,7-7.6,10.6-13.5l0.3-0.4
	c0.2-0.4,0.6-0.6,1-0.6c0.6,0,1.4,0.6,1.9,1.9c0.6,1.5,1.9,7-5.9,16.5h-0.5c-3.3,0-6,2.7-6,6c0,1.5,0.6,2.9,1.5,4
	c-3.1,1.3-4.5,4.9-3.2,8c0.6,1.4,1.8,2.6,3.2,3.2c-0.9,1.1-1.5,2.5-1.5,4c0,2.6,1.6,4.8,4,5.7c-0.9,1.1-1.4,2.5-1.4,3.9
	c0,1.3,0.4,2.5,1.2,3.5h-4.8c-6,0-11.3-3.5-13.1-8.7l-0.4-0.8H5.3c-1.6,0-2.9-1.3-2.9-2.9l0,0L2.5,29L2.5,29z M50,27.1
	c0,1.9-1.5,3.5-3.5,3.5c0,0,0,0,0,0H33.3c-1.9,0-3.5-1.5-3.5-3.5c0,0,0,0,0,0c0-1.9,1.6-3.5,3.5-3.5h13.1C48.4,23.6,50,25.2,50,27.1
	z M50,46.2c0,1.9-1.5,3.5-3.5,3.5c0,0,0,0,0,0H33.3c-1.9,0-3.5-1.6-3.5-3.5s1.6-3.5,3.5-3.5h13.1C48.4,42.7,50,44.3,50,46.2z
	 M42.2,59.3h-6.4c-1.9,0-3.5-1.6-3.5-3.5s1.6-3.5,3.5-3.5h6.4c1.9,0,3.5,1.5,3.5,3.5c0,0,0,0,0,0c0,1.9-1.4,3.5-3.3,3.5
	C42.3,59.3,42.3,59.3,42.2,59.3z M49.6,40.2H31.1c-1.9,0-3.5-1.5-3.5-3.5c0,0,0,0,0,0c0-1.9,1.6-3.5,3.5-3.5h18.4
	c1.9,0,3.5,1.5,3.5,3.5S51.5,40.2,49.6,40.2C49.6,40.2,49.6,40.2,49.6,40.2z"/>
</svg>
