<svg id="Layer_1" data-name="Layer 1" xmlns="http://www.w3.org/2000/svg" viewBox="0 0 55.6 61.71"><title>Smile</title><path d="M5.4,52.21h5.7c2.4,5.7,8.4,9.5,15.1,9.5h16a6,6,0,0,0,6-6,5.78,5.78,0,0,0-1.2-3.6,6.06,6.06,0,0,0,5.4-6,6.46,6.46,0,0,0-1.3-3.8,6,6,0,0,0,0-11.6,6.05,6.05,0,0,0-4.7-9.8H36.9c7-9.4,5.9-15.2,5-17.4a5.33,5.33,0,0,0-4-3.5,3.56,3.56,0,0,0-3.3,1.8l-0.3.4c-3.5,5.8-5.7,9.4-10,12.8l-10.5,8.7H5.3A5.34,5.34,0,0,0,0,29v17.9A5.36,5.36,0,0,0,5.4,52.21ZM2.5,29a2.9,2.9,0,0,1,2.9-2.9h9.3l11.2-9c4.7-3.7,7-7.6,10.6-13.5l0.3-.4a1.22,1.22,0,0,1,1-.6c0.6,0,1.4.6,1.9,1.9,0.6,1.5,1.9,7-5.9,16.5H33.3a6,6,0,0,0-6,6,6.37,6.37,0,0,0,1.5,4,6.09,6.09,0,0,0,0,11.2,6.37,6.37,0,0,0-1.5,4,6.09,6.09,0,0,0,4,5.7,5.82,5.82,0,0,0-1.4,3.9,5.5,5.5,0,0,0,1.2,3.5H26.3c-6,0-11.3-3.5-13.1-8.7l-0.4-.8H5.3a2.9,2.9,0,0,1-2.9-2.9V29H2.5ZM50,27.11a3.48,3.48,0,0,1-3.5,3.5H33.3a3.48,3.48,0,0,1-3.5-3.5,3.54,3.54,0,0,1,3.5-3.5H46.4A3.56,3.56,0,0,1,50,27.11Zm0,19.1a3.48,3.48,0,0,1-3.5,3.5H33.3a3.5,3.5,0,0,1,0-7H46.4A3.56,3.56,0,0,1,50,46.21Zm-7.8,13.1H35.8a3.5,3.5,0,0,1,0-7h6.4a3.48,3.48,0,0,1,3.5,3.5A3.42,3.42,0,0,1,42.2,59.31Zm7.4-19.1H31.1a3.48,3.48,0,0,1-3.5-3.5,3.54,3.54,0,0,1,3.5-3.5H49.5A3.5,3.5,0,0,1,49.6,40.21Z" style="fill:#fff"/></svg>