<?xml version="1.0" encoding="utf-8"?>
<!-- Generator: Adobe Illustrator 21.0.0, SVG Export Plug-In . SVG Version: 6.00 Build 0)  -->
<svg version="1.1" id="Layer_1" xmlns="http://www.w3.org/2000/svg" xmlns:xlink="http://www.w3.org/1999/xlink" x="0px" y="0px"
	 viewBox="0 0 108.7 60" style="enable-background:new 0 0 108.7 60;" xml:space="preserve">
<style type="text/css">
	.st0{font-family:'HelveticaNeue';}
	.st1{font-size:19.474px;}
</style>
<title>Smile</title>
<g>
	<path d="M104,1.8c1.6,0,2.9,1.3,2.9,2.9v50.5c0,1.6-1.3,2.9-2.9,2.9H4.7c-1.6,0-2.9-1.3-2.9-2.9V4.7c0-1.6,1.3-2.9,2.9-2.9L104,1.8
		 M104,0H4.7C2.1,0,0,2.1,0,4.7v50.5C0,57.9,2.1,60,4.7,60H104c2.6,0,4.7-2.1,4.7-4.7V4.7C108.7,2.1,106.6,0,104,0L104,0z"/>
</g>
<text transform="matrix(1 0 0 1 27.8738 34.6611)" class="st0 st1">space</text>
</svg>
