<?xml version="1.0" encoding="utf-8"?>
<!-- Generator: Adobe Illustrator 19.2.1, SVG Export Plug-In . SVG Version: 6.00 Build 0)  -->
<svg version="1.1" id="Layer_1" xmlns="http://www.w3.org/2000/svg" xmlns:xlink="http://www.w3.org/1999/xlink" x="0px" y="0px"
	 viewBox="0 0 108.7 60" style="enable-background:new 0 0 108.7 60;" xml:space="preserve">
<style type="text/css">
	.st0{fill:#FFFFFF;}
</style>
<title>Smile</title>
<g>
	<path class="st0" d="M99.2,4c3,0,5.5,2.5,5.5,5.5v41c0,3-2.5,5.5-5.5,5.5H9.5c-3,0-5.5-2.5-5.5-5.5v-41C4,6.4,6.5,4,9.5,4H99.2
		 M99.2,0H9.5C4.3,0,0,4.2,0,9.5v41C0,55.7,4.3,60,9.5,60h89.7c5.3,0,9.5-4.3,9.5-9.5v-41C108.7,4.2,104.4,0,99.2,0L99.2,0z"/>
</g>
<g>
	<path class="st0" d="M25.7,32.4c0.1,0.6,0.2,1,0.4,1.2c0.4,0.4,1.1,0.6,2.2,0.6c0.6,0,1.1-0.1,1.5-0.3s0.6-0.5,0.6-0.8
		c0-0.4-0.2-0.6-0.5-0.8s-1.4-0.5-3.3-1c-1.4-0.3-2.4-0.8-2.9-1.3c-0.6-0.5-0.9-1.2-0.9-2.2c0-1.1,0.4-2.1,1.3-2.9
		c0.9-0.8,2.1-1.2,3.8-1.2c1.5,0,2.8,0.3,3.7,0.9c1,0.6,1.5,1.7,1.7,3.2h-3.2c0-0.4-0.2-0.7-0.3-1c-0.4-0.4-1-0.7-1.8-0.7
		c-0.7,0-1.2,0.1-1.5,0.3S26,27,26,27.3c0,0.4,0.2,0.6,0.5,0.8c0.3,0.2,1.4,0.5,3.3,0.9c1.3,0.3,2.2,0.8,2.9,1.4
		c0.6,0.6,0.9,1.4,0.9,2.3c0,1.2-0.5,2.2-1.4,3c-0.9,0.8-2.3,1.2-4.2,1.2c-1.9,0-3.4-0.4-4.3-1.2c-0.9-0.8-1.4-1.8-1.4-3.1H25.7z"/>
	<path class="st0" d="M46.3,25.4c1,1.1,1.5,2.6,1.5,4.6c0,2.2-0.5,3.8-1.5,4.9c-1,1.1-2.2,1.7-3.8,1.7c-1,0-1.8-0.2-2.4-0.7
		c-0.4-0.3-0.7-0.7-1-1.2v6.4h-3.2V24.1H39v1.8c0.3-0.5,0.7-1,1.1-1.3c0.7-0.5,1.6-0.8,2.6-0.8C44.1,23.8,45.3,24.4,46.3,25.4z
		 M43.9,27.7c-0.4-0.7-1.1-1.1-2.1-1.1c-1.2,0-2,0.6-2.4,1.7c-0.2,0.6-0.3,1.3-0.3,2.2c0,1.4,0.4,2.4,1.1,3c0.5,0.3,1,0.5,1.6,0.5
		c0.9,0,1.6-0.3,2.1-1s0.7-1.6,0.7-2.8C44.5,29.3,44.3,28.5,43.9,27.7z"/>
	<path class="st0" d="M54.9,28.9c0.6-0.1,1-0.2,1.3-0.3c0.5-0.2,0.7-0.5,0.7-0.9c0-0.5-0.2-0.8-0.5-1c-0.4-0.2-0.9-0.3-1.6-0.3
		c-0.8,0-1.3,0.2-1.6,0.6c-0.2,0.3-0.4,0.7-0.5,1.1h-3.1c0.1-1.1,0.4-2,0.9-2.6c0.8-1.1,2.3-1.6,4.4-1.6c1.3,0,2.5,0.3,3.6,0.8
		s1.6,1.5,1.6,3v5.6c0,0.4,0,0.9,0,1.4c0,0.4,0.1,0.7,0.2,0.9c0.1,0.2,0.3,0.3,0.5,0.4v0.5h-3.5c-0.1-0.2-0.2-0.5-0.2-0.7
		S57,35.2,57,34.9c-0.4,0.5-1,0.9-1.5,1.2c-0.7,0.4-1.5,0.6-2.3,0.6c-1.1,0-2-0.3-2.8-0.9c-0.7-0.6-1.1-1.5-1.1-2.7
		c0-1.5,0.6-2.6,1.8-3.3c0.6-0.4,1.6-0.6,2.8-0.8L54.9,28.9z M56.9,30.4c-0.2,0.1-0.4,0.2-0.6,0.3c-0.2,0.1-0.5,0.2-0.9,0.2
		l-0.7,0.1c-0.7,0.1-1.2,0.3-1.5,0.4c-0.5,0.3-0.8,0.7-0.8,1.4c0,0.5,0.2,0.9,0.5,1.2c0.3,0.2,0.7,0.4,1.1,0.4
		c0.7,0,1.3-0.2,1.9-0.6c0.6-0.4,0.9-1.1,0.9-2.2V30.4z"/>
	<path class="st0" d="M70.2,28.5c-0.1-0.5-0.2-0.9-0.5-1.2c-0.4-0.5-0.9-0.7-1.7-0.7c-1.1,0-1.8,0.5-2.2,1.6
		c-0.2,0.6-0.3,1.3-0.3,2.3c0,0.9,0.1,1.6,0.3,2.2c0.4,1,1.1,1.5,2.2,1.5c0.8,0,1.3-0.2,1.6-0.6c0.3-0.4,0.5-0.9,0.6-1.6h3.3
		c-0.1,1-0.4,1.9-1.1,2.8c-1,1.4-2.5,2.1-4.5,2.1c-2,0-3.4-0.6-4.4-1.8c-0.9-1.2-1.4-2.7-1.4-4.5c0-2.1,0.5-3.7,1.5-4.9
		c1-1.2,2.4-1.8,4.2-1.8c1.5,0,2.8,0.3,3.8,1c1,0.7,1.6,1.9,1.7,3.6H70.2z"/>
	<path class="st0" d="M83.6,24.4c0.9,0.4,1.6,1,2.1,1.8c0.5,0.7,0.8,1.6,1,2.5c0.1,0.6,0.1,1.4,0.1,2.4h-8.9c0,1.2,0.5,2.1,1.3,2.6
		c0.5,0.3,1.1,0.5,1.8,0.5c0.7,0,1.3-0.2,1.8-0.6c0.2-0.2,0.5-0.5,0.7-0.8h3.3c-0.1,0.7-0.5,1.5-1.2,2.2c-1.1,1.2-2.6,1.8-4.6,1.8
		c-1.6,0-3.1-0.5-4.3-1.5c-1.2-1-1.9-2.6-1.9-4.9c0-2.1,0.6-3.7,1.7-4.9s2.6-1.7,4.4-1.7C81.8,23.8,82.8,24,83.6,24.4z M78.8,27.1
		c-0.5,0.5-0.7,1.1-0.9,1.9h5.5c-0.1-0.8-0.3-1.5-0.9-1.9c-0.5-0.4-1.1-0.7-1.9-0.7C79.9,26.4,79.3,26.7,78.8,27.1z"/>
</g>
</svg>
