<?xml version="1.0" encoding="utf-8"?>
<!-- Generator: Adobe Illustrator 19.2.1, SVG Export Plug-In . SVG Version: 6.00 Build 0)  -->
<svg version="1.1" xmlns="http://www.w3.org/2000/svg" xmlns:xlink="http://www.w3.org/1999/xlink" x="0px" y="0px"
	 viewBox="0 0 51 60" style="enable-background:new 0 0 51 60;" xml:space="preserve">
<style type="text/css">
	.st0{fill:#FFFFFF;}
	.st1{fill:none;stroke:#FFFFFF;stroke-width:2;stroke-linecap:round;stroke-miterlimit:10;}
	.st2{fill:none;stroke:#FFFFFF;stroke-width:2;stroke-linecap:round;stroke-linejoin:round;stroke-miterlimit:10;}
	.st3{font-family:'Marcellus-Regular';}
	.st4{font-size:20.693px;}
</style>
<g id="Layer_1">
</g>
<g id="Layer_2">
	<path class="st0" d="M34.8,17.4c-1,0.1-1.8,0.8-2.4,1.8c0,0,0,0.1-0.1,0.1c-0.8-0.6-1.9-0.9-2.9-0.7c-1,0.1-1.8,0.8-2.4,1.8
		c0,0,0,0.1-0.1,0.1c-0.8-0.7-1.9-1-3-0.8c-0.7,0.1-1.2,0.4-1.7,0.9l-1.9-8.9c-0.5-2.3-2.5-3.7-4.5-3.3c-1,0.1-1.8,0.8-2.4,1.8
		s-0.7,2-0.5,3.1L17,32l0,0l0.9,4.2c0.2,0.8-0.2,1.4-0.5,1.6c-0.2,0.2-0.6,0.4-1.1-0.1l-2.9-2.1c-0.9-0.6-1.9-0.9-2.9-0.6
		c-1,0.1-1.8,0.8-2.4,1.8c-1,1.9-0.5,4.4,1.2,5.7l9.8,7.4c1.1,0.9,2.3,1.3,3.6,1.4c0.1,0,0.3,0,0.4,0l0.7,3.2
		c0.3,1.5,1.8,2.5,3.4,2.1l11.6-2.6c1.5-0.3,2.2-1.7,1.9-3.3L40,47.2c2.4-1.6,3.9-4.9,3.2-8L40.6,27l-1.3-6.3
		C38.9,18.4,36.8,17,34.8,17.4z M41.2,39.4c0.6,2.7-0.9,5.2-2.9,6.2c-0.3,0.1-0.4,0.3-0.5,0.5c0,0-0.1,0.1-0.1,0.1
		c0,0,0,0.1-0.1,0.1c-0.1,0.2-0.1,0.4-0.1,0.6l0.9,4.2c0.1,0.3,0,0.5-0.1,0.6l-11.6,2.6c-0.3,0.1-0.6-0.1-0.6-0.4l-0.9-4.2
		c-0.1-0.3-0.2-0.5-0.5-0.7c-0.2-0.2-0.5-0.2-0.8-0.1c0,0,0,0,0,0L23.3,49c-1,0.1-2.1-0.2-3-0.9l-9.9-7.4c-0.9-0.6-1.2-2.2-0.6-3.1
		c0.2-0.5,0.6-0.8,1-0.8c0.4-0.1,0.9,0,1.3,0.4l2.9,2.1c1.1,0.8,2.4,0.8,3.4,0.2c1.1-0.7,1.7-2.2,1.4-3.6l-0.9-4.2l0,0l-4-18.6
		c-0.2-0.6,0-1.2,0.2-1.7c0.2-0.5,0.6-0.8,1-0.8c1-0.1,2,0.6,2.2,1.8l4.1,18.7l2-0.4l-1.3-6.3c-0.2-0.6,0-1.2,0.2-1.7
		c0.2-0.5,0.6-0.8,1-0.8c1-0.1,2,0.6,2.2,1.8l1.3,6.3l2-0.4l-1.3-6.3c-0.2-0.6,0-1.2,0.2-1.7c0.2-0.5,0.6-0.8,1-0.8
		c0.9-0.1,1.7,0.4,2.1,1.3c0,0.1,0,0.2,0.1,0.4l1.3,6.3l0.1,0l0,0.1l1.9-0.4l0-0.1l0,0L34,21.8c-0.2-0.6,0-1.2,0.2-1.7
		c0.2-0.5,0.6-0.8,1-0.8c1-0.1,2,0.6,2.2,1.8l1.3,6.3L41.2,39.4z"/>
	<line class="st1" x1="24.7" y1="10.1" x2="39.5" y2="6.4"/>
	<polyline class="st2" points="36.2,10.3 40.3,6.2 34.8,4.5 	"/>
	<text transform="matrix(0.9858 -0.1676 0.1676 0.9858 29.2291 49.0677)" class="st0 st3 st4">i</text>
</g>
</svg>
