<?xml version="1.0" encoding="utf-8"?>
<!-- Generator: Adobe Illustrator 19.0.0, SVG Export Plug-In . SVG Version: 6.00 Build 0)  -->
<svg version="1.1" id="Layer_1" xmlns="http://www.w3.org/2000/svg" xmlns:xlink="http://www.w3.org/1999/xlink" x="0px" y="0px"
	 viewBox="-359 361 72 72" style="enable-background:new -359 361 72 72;" xml:space="preserve">
<style type="text/css">
	.st0{fill:#FFFFFF;}
	.st1{fill:#111111;}
</style>
<g>
	<polygon class="st0" points="-358.1,425 -330,397 -358.1,369 -351,361.9 -323,390 -295,361.9 -287.9,369 -316,397 -287.9,425 
		-295,432.1 -323,404 -351,432.1 	"/>
	<path class="st1" d="M-351,362.6l27.3,27.3l0.7,0.7l0.7-0.7l27.3-27.3l6.3,6.3l-27.3,27.3l-0.7,0.7l0.7,0.7l27.3,27.3l-6.3,6.3
		l-27.3-27.3l-0.7-0.7l-0.7,0.7l-27.3,27.3l-6.3-6.3l27.3-27.3l0.7-0.7l-0.7-0.7l-27.3-27.3L-351,362.6 M-295,361.2l-28,28l-28-28
		l-7.8,7.8l28,28l-28,28l7.8,7.8l28-28l28,28l7.8-7.8l-28-28l28-28L-295,361.2L-295,361.2z"/>
</g>
</svg>
